<?xml version="1.0"?>
<svg xmlns:rdf="http://www.w3.org/1999/02/22-rdf-syntax-ns#" xmlns="http://www.w3.org/2000/svg" xmlns:cc="http://web.resource.org/cc/" xmlns:xlink="http://www.w3.org/1999/xlink" xmlns:dc="http://purl.org/dc/elements/1.1/" xmlns:svg="http://www.w3.org/2000/svg" id="svg2" viewBox="0 0 393.81 574.1" version="1.0">
  <defs id="defs4">
    <linearGradient id="linearGradient6345">
      <stop id="stop6347" stop-color="#ba7f26" offset="0"/>
      <stop id="stop6349" stop-color="#e96b10" offset="1"/>
    </linearGradient>
    <linearGradient id="linearGradient4558">
      <stop id="stop4560" stop-color="#ff9a00" offset="0"/>
      <stop id="stop4562" stop-color="#e96b10" offset="1"/>
    </linearGradient>
    <linearGradient id="linearGradient4550">
      <stop id="stop4552" offset="0"/>
      <stop id="stop4554" stop-opacity="0" offset="1"/>
    </linearGradient>
    <linearGradient id="linearGradient2025" x1="324.39" xlink:href="#linearGradient6345" gradientUnits="userSpaceOnUse" y1="467.38" gradientTransform="matrix(2.1361 .12925 -.13785 2.0921 -636.62 -891.33)" x2="394.37" y2="568.4"/>
    <linearGradient id="linearGradient2027" x1="370.6" xlink:href="#linearGradient6345" gradientUnits="userSpaceOnUse" y1="482.97" gradientTransform="matrix(2.183 -.13784 .13784 2.183 -450.92 -868.31)" x2="273.53" y2="577.55"/>
    <linearGradient id="linearGradient2029" x1="400.82" xlink:href="#linearGradient4550" gradientUnits="userSpaceOnUse" y1="439.9" gradientTransform="matrix(2.1361 .12925 -.13785 2.0921 -636.62 -882.58)" x2="414.92" y2="471.75"/>
    <linearGradient id="linearGradient2031" x1="364.83" xlink:href="#linearGradient6345" gradientUnits="userSpaceOnUse" y1="454.53" gradientTransform="matrix(2.1361 .12925 -.13785 2.0921 -636.62 -892.87)" x2="410.59" y2="483.11"/>
    <linearGradient id="linearGradient2033" x1="317.5" xlink:href="#linearGradient4550" gradientUnits="userSpaceOnUse" y1="455.07" gradientTransform="matrix(2.183 -.13784 .13784 2.183 -450.37 -865.58)" x2="308.48" y2="493.84"/>
    <linearGradient id="linearGradient2035" x1="326.26" xlink:href="#linearGradient6345" gradientUnits="userSpaceOnUse" y1="455.12" gradientTransform="matrix(2.183 -.13784 .13784 2.183 -450.37 -866.67)" x2="283.14" y2="480.97"/>
    <linearGradient id="linearGradient2037" x1="324.39" xlink:href="#linearGradient4558" gradientUnits="userSpaceOnUse" y1="467.38" gradientTransform="matrix(2.183 -.13784 .13784 2.183 -647.36 -838.66)" x2="394.37" y2="568.4"/>
    <linearGradient id="linearGradient2039" x1="324.39" xlink:href="#linearGradient4558" gradientUnits="userSpaceOnUse" y1="467.38" gradientTransform="matrix(-2.1359 .13487 .13784 2.183 999.72 -942.43)" x2="394.37" y2="568.4"/>
  </defs>
  <g id="g2008" transform="matrix(.93484 0 0 .93484 12.83 18.704)">
    <path id="path10793" stroke-linejoin="round" d="m46.51 131.97s35.183-117.09 63.22-125.98c28.03-8.8972 69.8 99.69 69.8 99.69" stroke="#e4c440" stroke-linecap="round" stroke-width="10.937" fill="none"/>
    <path id="path16161" stroke-linejoin="round" d="m46.51 131.97s35.183-117.09 63.22-125.98c28.03-8.8972 69.8 99.69 69.8 99.69" stroke="#ffcf00" stroke-linecap="round" stroke-width="3.4998" fill="none"/>
    <path id="path5456" style="color:black" fill="url(#linearGradient2025)" stroke-opacity="0" d="m210.66 96.656l-195.85 29.844 192.35 36.47 3.5-66.314z"/>
    <path id="path6355" style="color:black" fill="url(#linearGradient2027)" stroke-opacity="0" d="m210.62 96.656l-4.4 66.124 8.53 1.63 155.47-46.47-159.6-21.284z"/>
    <path id="rect7244" style="color:black" fill-opacity="0" d="m206.15 98.175l6.27-0.838 0.84 59.893h-7.11v-59.055z"/>
    <path id="path11694" style="color:black" fill="url(#linearGradient2029)" stroke-opacity="0" d="m210.66 105.41l-170.25 25.97 80.62 15.24 90.85-13.15-1.22-28.06z"/>
    <path id="path11700" style="color:black" fill="url(#linearGradient2031)" stroke-opacity="0" d="m211.06 96.812l-196.37 28.188 0.06 1.5 100.44 19.03 98.37-13.87-2.5-34.848z"/>
    <path id="path12593" style="color:black" fill="url(#linearGradient2033)" stroke-opacity="0" d="m211.18 99.403l159.87 21.307-8.58 31.08-150.72-18.48-0.57-33.907z"/>
    <path id="path12597" style="color:black" fill="url(#linearGradient2035)" stroke-opacity="0" d="m211.04 96.738l159.33 21.372-7.9 32.58-149.49-18.75-1.94-35.202z"/>
    <path id="rect2778" style="color:black" fill="url(#linearGradient2037)" stroke-opacity="0" d="m14.296 126.39l200.43 38 25.14 409.27-239.43-58.68 13.856-388.59z"/>
    <path id="path5450" style="color:black" fill="url(#linearGradient2039)" stroke-opacity="0" d="m370.54 117.86l-155.94 46.6 24.95 409.11 153.82-84.17-22.83-371.54z"/>
    <path id="path10800" style="color:black" fill="#c7791f" d="m240.24 186.13c0 2.83-1.51 5.46-3.96 6.88-2.46 1.42-5.48 1.42-7.94 0-2.45-1.42-3.96-4.05-3.96-6.88 0-2.84 1.51-5.46 3.96-6.88 2.46-1.42 5.48-1.42 7.94 0 2.45 1.42 3.96 4.04 3.96 6.88z"/>
    <path id="path11688" style="color:black" fill="#c7791f" d="m366.47 143.17c0.01 2.6-1.37 4.99-3.62 6.29-2.24 1.3-5 1.3-7.25 0-2.24-1.3-3.62-3.69-3.62-6.29 0-2.59 1.38-4.98 3.62-6.28 2.25-1.3 5.01-1.3 7.25 0 2.25 1.3 3.63 3.69 3.62 6.28z"/>
    <path id="path9904" stroke-linejoin="round" d="m232.11 183.23s23.59-146.4 51.62-155.3c28.04-8.892 75.21 112.76 75.21 112.76" stroke="#eac115" stroke-linecap="round" stroke-width="10.937" fill="none"/>
    <path id="path13504" stroke-linejoin="round" d="m232.11 183.23s23.59-146.4 51.62-155.3c28.04-8.892 75.21 112.76 75.21 112.76" stroke="#ffce00" stroke-linecap="round" stroke-width="3.4998" fill="none"/>
  </g>
  <metadata>
    <rdf:RDF>
      <cc:Work>
        <dc:format>image/svg+xml</dc:format>
        <dc:type rdf:resource="http://purl.org/dc/dcmitype/StillImage"/>
        <cc:license rdf:resource="http://creativecommons.org/licenses/publicdomain/"/>
        <dc:publisher>
          <cc:Agent rdf:about="http://openclipart.org/">
            <dc:title>Openclipart</dc:title>
          </cc:Agent>
        </dc:publisher>
        <dc:title>Shopping bag</dc:title>
        <dc:date>2006-11-30T02:26:56</dc:date>
        <dc:description>An orange paper shopping bag.</dc:description>
        <dc:source>http://openclipart.org/detail/1684/shopping-bag-by-szymonraj</dc:source>
        <dc:creator>
          <cc:Agent>
            <dc:title>szymonraj</dc:title>
          </cc:Agent>
        </dc:creator>
        <dc:subject>
          <rdf:Bag>
            <rdf:li>bag</rdf:li>
            <rdf:li>basket</rdf:li>
            <rdf:li>buy</rdf:li>
            <rdf:li>checkout</rdf:li>
            <rdf:li>clip art</rdf:li>
            <rdf:li>clipart</rdf:li>
            <rdf:li>image</rdf:li>
            <rdf:li>media</rdf:li>
            <rdf:li>orange</rdf:li>
            <rdf:li>png</rdf:li>
            <rdf:li>public domain</rdf:li>
            <rdf:li>shop</rdf:li>
            <rdf:li>shopping</rdf:li>
            <rdf:li>svg</rdf:li>
          </rdf:Bag>
        </dc:subject>
      </cc:Work>
      <cc:License rdf:about="http://creativecommons.org/licenses/publicdomain/">
        <cc:permits rdf:resource="http://creativecommons.org/ns#Reproduction"/>
        <cc:permits rdf:resource="http://creativecommons.org/ns#Distribution"/>
        <cc:permits rdf:resource="http://creativecommons.org/ns#DerivativeWorks"/>
      </cc:License>
    </rdf:RDF>
  </metadata>
</svg>
